<svg width="11" height="212" viewBox="0 0 11 212" fill="none" xmlns="http://www.w3.org/2000/svg">
<line x1="5.5" y1="11" x2="5.5" y2="101" stroke="#8B8D94" style="stroke:#8B8D94;stroke:color(display-p3 0.5451 0.5529 0.5804);stroke-opacity:1;"/>
<line x1="5.5" y1="111" x2="5.5" y2="201" stroke="#8B8D94" style="stroke:#8B8D94;stroke:color(display-p3 0.5451 0.5529 0.5804);stroke-opacity:1;"/>
<path fill-rule="evenodd" clip-rule="evenodd" d="M5.5 11C8.53757 11 11 8.53757 11 5.5C11 2.46243 8.53757 0 5.5 0C2.46243 0 0 2.46243 0 5.5C0 8.53757 2.46243 11 5.5 11ZM5.5 10C7.98528 10 10 7.98528 10 5.5C10 3.01472 7.98528 1 5.5 1C3.01472 1 1 3.01472 1 5.5C1 7.98528 3.01472 10 5.5 10Z" fill="#FF4A57" style="fill:#FF4A57;fill:color(display-p3 1.0000 0.2902 0.3412);fill-opacity:1;"/>
<path fill-rule="evenodd" clip-rule="evenodd" d="M5.5 111C8.53757 111 11 108.538 11 105.5C11 102.462 8.53757 100 5.5 100C2.46243 100 0 102.462 0 105.5C0 108.538 2.46243 111 5.5 111ZM5.5 110C7.98528 110 10 107.985 10 105.5C10 103.015 7.98528 101 5.5 101C3.01472 101 1 103.015 1 105.5C1 107.985 3.01472 110 5.5 110Z" fill="#FF4A57" style="fill:#FF4A57;fill:color(display-p3 1.0000 0.2902 0.3412);fill-opacity:1;"/>
<circle cx="5.5" cy="206.5" r="5.5" fill="#FF4A57" style="fill:#FF4A57;fill:color(display-p3 1.0000 0.2902 0.3412);fill-opacity:1;"/>
</svg>
