<svg width="11" height="212" viewBox="0 0 11 212" fill="none" xmlns="http://www.w3.org/2000/svg">
<line x1="5.5" y1="11" x2="5.5" y2="101" stroke="#8B8D94" style="stroke:#8B8D94;stroke:color(display-p3 0.5451 0.5529 0.5804);stroke-opacity:1;"/>
<line x1="5.5" y1="111" x2="5.5" y2="201" stroke="#8B8D94" style="stroke:#8B8D94;stroke:color(display-p3 0.5451 0.5529 0.5804);stroke-opacity:1;"/>
<path fill-rule="evenodd" clip-rule="evenodd" d="M5.5 111C8.53757 111 11 108.538 11 105.5C11 102.462 8.53757 100 5.5 100C2.46243 100 0 102.462 0 105.5C0 108.538 2.46243 111 5.5 111ZM5.5 110C7.98528 110 10 107.985 10 105.5C10 103.015 7.98528 101 5.5 101C3.01472 101 1 103.015 1 105.5C1 107.985 3.01472 110 5.5 110Z" fill="#FF4A57" style="fill:#FF4A57;fill:color(display-p3 1.0000 0.2902 0.3412);fill-opacity:1;"/>
<path fill-rule="evenodd" clip-rule="evenodd" d="M5.5 212C8.53757 212 11 209.538 11 206.5C11 203.462 8.53757 201 5.5 201C2.46243 201 0 203.462 0 206.5C0 209.538 2.46243 212 5.5 212ZM5.5 211C7.98528 211 10 208.985 10 206.5C10 204.015 7.98528 202 5.5 202C3.01472 202 1 204.015 1 206.5C1 208.985 3.01472 211 5.5 211Z" fill="#FF4A57" style="fill:#FF4A57;fill:color(display-p3 1.0000 0.2902 0.3412);fill-opacity:1;"/>
<circle cx="5.5" cy="5.5" r="5.5" fill="#FF4A57" style="fill:#FF4A57;fill:color(display-p3 1.0000 0.2902 0.3412);fill-opacity:1;"/>
</svg>
