<svg width="60" height="60" viewBox="0 0 60 60" fill="none" xmlns="http://www.w3.org/2000/svg">
<path d="M53.9052 9.64008C53.2234 8.07117 52.0459 6.72023 50.5525 5.55563C48.3049 3.81 45.3074 2.44758 41.8016 1.49027C38.2956 0.536133 34.2771 0 30 0C23.4818 0.00421875 17.5698 1.23609 13.1428 3.32508C10.9292 4.37496 9.07733 5.6407 7.71585 7.15863C7.03722 7.91801 6.48303 8.74559 6.09491 9.6402C5.70772 10.5348 5.49186 11.4995 5.4928 12.4867V47.5125C5.49186 48.4996 5.70772 49.4654 6.09491 50.359C6.77671 51.9279 7.95421 53.2787 9.44764 54.4445C11.6953 56.1901 14.6926 57.5527 18.1986 58.51C21.7044 59.4639 25.723 59.9991 30 60C36.5194 59.9946 42.4301 58.7641 46.8572 56.6739C49.0706 55.6241 50.9225 54.3593 52.284 52.8404C52.9628 52.082 53.5168 51.2544 53.9051 50.3589C54.2923 49.4654 54.5081 48.4995 54.5071 47.5124V12.4866C54.5082 11.4994 54.2924 10.5347 53.9052 9.64008ZM51.1268 47.5125C51.1257 48.0156 51.0226 48.506 50.8024 49.0175C50.4194 49.9078 49.6482 50.8651 48.475 51.7767C46.721 53.1478 44.0958 54.385 40.9133 55.2485C37.7307 56.1143 33.9929 56.6207 29.9999 56.6196C23.9168 56.625 18.4196 55.4379 14.5894 53.6189C12.6725 52.7148 11.1834 51.6532 10.2368 50.5884C9.7603 50.0566 9.41776 49.527 9.19757 49.0174C8.97725 48.5058 8.87413 48.0155 8.87307 47.5124V41.728C10.8282 43.5151 13.5736 44.9425 16.8571 45.9977C20.6427 47.2071 25.1526 47.9017 29.9999 47.9027C36.4639 47.8996 42.3238 46.6731 46.6764 44.6181C48.4261 43.7884 49.9216 42.8171 51.1267 41.7121V47.5125H51.1268ZM51.1268 37.6404C50.8864 38.1562 50.5428 38.6733 50.0791 39.1955C48.5815 40.8825 45.8701 42.4706 42.3717 43.5832C38.8744 44.7021 34.6037 45.368 30 45.367C23.8626 45.3702 18.3133 44.1788 14.4087 42.326C12.4547 41.4038 10.9208 40.3178 9.92108 39.1955C9.45725 38.6733 9.11366 38.1563 8.87319 37.6416V30.0532C10.8283 31.8402 13.5737 33.2677 16.8572 34.3228C20.6428 35.5311 25.1528 36.2257 30 36.2269C36.4641 36.2236 42.3239 34.9973 46.6765 32.9421C48.4262 32.1124 49.9217 31.1425 51.1268 30.0373V37.6404ZM51.1268 25.9655C50.8864 26.4813 50.5428 26.9982 50.0791 27.5195C48.5815 29.2064 45.8701 30.7956 42.3717 31.9071C38.8744 33.0261 34.6037 33.692 30 33.6909C23.8626 33.6942 18.3133 32.5029 14.4087 30.651C12.4547 29.7287 10.9208 28.6417 9.92108 27.5195C9.45725 26.9982 9.11366 26.4813 8.87319 25.9655V18.3771C10.8283 20.1652 13.5737 21.5916 16.8572 22.6478C20.6428 23.8571 25.1528 24.5517 30 24.5517C36.4641 24.5486 42.3239 23.3231 46.6765 21.2671C48.4262 20.4374 49.9217 19.4673 51.1268 18.3621V25.9655ZM51.1268 14.2894C50.8864 14.8054 50.5428 15.3233 50.0791 15.8446C48.5815 17.5327 45.8701 19.1207 42.3717 20.2334C38.8744 21.3523 34.6037 22.0181 30 22.0172C23.8626 22.0204 18.3133 20.8289 14.4087 18.9762C12.4547 18.0529 10.9208 16.9668 9.92108 15.8447C9.45725 15.3234 9.11366 14.8055 8.87319 14.2905V12.4866C8.87436 11.9834 8.97749 11.4941 9.19768 10.9825C9.58065 10.091 10.3517 9.13488 11.525 8.22223C13.2791 6.85113 15.9042 5.6141 19.0867 4.75148C22.2692 3.88453 26.0069 3.37934 30 3.38039C36.0832 3.375 41.5803 4.56223 45.4106 6.38109C47.3273 7.28414 48.8154 8.34574 49.7632 9.41156C50.2397 9.94336 50.5821 10.4721 50.8024 10.9826C51.0225 11.4942 51.1256 11.9835 51.1268 12.4867V14.2894Z" fill="black" style="fill:#FF4A57;;fill-opacity:1;"/>
</svg>
