<svg width="60" height="50" viewBox="0 0 60 50" fill="none" xmlns="http://www.w3.org/2000/svg">
<path d="M28.125 11.75H31.875V15.5H28.125V11.75ZM12.1875 11.75C11.67 11.75 11.25 12.17 11.25 12.6875C11.25 13.205 11.67 13.625 12.1875 13.625C12.705 13.625 13.125 13.205 13.125 12.6875C13.125 12.17 12.705 11.75 12.1875 11.75ZM40.3125 47.375H37.5V43.625H22.5V47.375H19.6875C19.17 47.375 18.75 47.795 18.75 48.3125C18.75 48.83 19.17 49.25 19.6875 49.25H40.3125C40.83 49.25 41.25 48.83 41.25 48.3125C41.25 47.795 40.83 47.375 40.3125 47.375ZM60 6.12503V36.125C60 39.2319 57.4819 41.75 54.375 41.75H5.625C2.51813 41.75 0 39.2319 0 36.125V6.12503C0 3.01816 2.51813 0.500034 5.625 0.500034H54.375C57.4819 0.500034 60 3.01816 60 6.12503ZM50.5612 12.0763C50.3362 11.0038 49.4606 10.145 48.3862 9.93128C46.92 9.64253 45.6206 10.4938 45.1744 11.75H33.75V9.87503H26.25V11.75H14.8275C14.3812 10.4938 13.08 9.64253 11.6156 9.93128C10.5413 10.1432 9.66562 11.0038 9.44062 12.0763C9.05625 13.8969 10.4344 15.5 12.1875 15.5C13.41 15.5 14.4412 14.7144 14.8275 13.625H26.25V14.045C18.0225 15.7269 11.7281 22.7788 11.2762 31.3813C11.2481 31.9194 11.6756 32.375 12.2156 32.375C12.7087 32.375 13.1231 31.9925 13.1475 31.4994C13.5394 23.8775 19.0237 17.6057 26.25 15.9575V17.375H33.75V15.9557C40.9763 17.6057 46.4606 23.8775 46.8525 31.4975C46.8788 31.9925 47.2913 32.375 47.7844 32.375C48.3244 32.375 48.7519 31.9194 48.7238 31.3813C48.2719 22.7788 41.9775 15.7269 33.75 14.045V13.625H45.1725C45.5606 14.7144 46.59 15.5 47.8125 15.5C49.5656 15.5 50.9437 13.8969 50.5612 12.0763ZM47.8125 11.75C47.295 11.75 46.875 12.17 46.875 12.6875C46.875 13.205 47.295 13.625 47.8125 13.625C48.33 13.625 48.75 13.205 48.75 12.6875C48.75 12.17 48.33 11.75 47.8125 11.75Z" style="fill:#FF4A57;;fill-opacity:1;"/>
</svg>
