<svg width="60" height="60" viewBox="0 0 60 60" fill="none" xmlns="http://www.w3.org/2000/svg">
<path fill-rule="evenodd" clip-rule="evenodd" d="M8.66117 8.66117C5.96052 11.3618 5.252 15.2766 5.06612 21.875H54.934C54.748 15.2766 54.0395 11.3618 51.3387 8.66117C47.6777 5 41.785 5 30 5C18.2149 5 12.3223 5 8.66117 8.66117ZM5 30C5 28.4415 5 26.986 5.00848 25.625H20.625V52.5V54.8908C14.7741 54.6478 11.1867 53.8645 8.66117 51.3387C5 47.6777 5 41.785 5 30ZM15 17.5C16.3807 17.5 17.5 16.3807 17.5 15C17.5 13.6193 16.3807 12.5 15 12.5C13.6193 12.5 12.5 13.6193 12.5 15C12.5 16.3807 13.6193 17.5 15 17.5ZM25 15C25 16.3807 23.8807 17.5 22.5 17.5C21.1193 17.5 20 16.3807 20 15C20 13.6193 21.1193 12.5 22.5 12.5C23.8807 12.5 25 13.6193 25 15ZM30 17.5C31.3807 17.5 32.5 16.3807 32.5 15C32.5 13.6193 31.3807 12.5 30 12.5C28.6193 12.5 27.5 13.6193 27.5 15C27.5 16.3807 28.6193 17.5 30 17.5Z" style="fill:#FF4A57;fill-opacity:1;"/>
<path d="M55 30C55 41.785 55 47.6777 51.3387 51.3387C47.6777 55 41.785 55 30 55C27.9538 55 26.0852 55 24.375 54.9808V52.5V25.625H54.9915C55 26.986 55 28.4415 55 30Z" fill="#1C274C" style="fill: #FF4A57;fill: #FF4A57;fill-opacity:1;"/>
</svg>
