<svg width="61" height="61" viewBox="0 0 61 61" xmlns="http://www.w3.org/2000/svg">
<path clip-rule="evenodd" d="M30.9811 0.94809C47.5501 0.94809 60.9811 14.7179 60.9811 31.7069C60.9811 45.2939 52.3951 56.82 40.4821 60.891C38.9611 61.194 38.4211 60.2334 38.4211 59.4144C38.4211 58.4004 38.4571 55.0885 38.4571 50.9725C38.4571 48.1045 37.4971 46.2327 36.4201 45.2787C43.1011 44.5167 50.1211 41.9154 50.1211 30.1014C50.1211 26.7414 48.9571 23.9996 47.0311 21.8456C47.3431 21.0686 48.3721 17.9399 46.7371 13.7039C46.7371 13.7039 44.2231 12.8798 38.4961 16.8578C36.0991 16.1768 33.5311 15.8341 30.9811 15.8221C28.4311 15.8341 25.8661 16.1768 23.4721 16.8578C17.7391 12.8798 15.2191 13.7039 15.2191 13.7039C13.5901 17.9399 14.6191 21.0686 14.9281 21.8456C13.0111 23.9996 11.8381 26.7414 11.8381 30.1014C11.8381 41.8854 18.8431 44.5266 25.5061 45.3036C24.6481 46.0716 23.8711 47.4264 23.6011 49.4154C21.8911 50.2014 17.5471 51.5617 14.8711 46.8607C14.8711 46.8607 13.2841 43.9053 10.2721 43.6893C10.2721 43.6893 7.34713 43.6504 10.0681 45.5584C10.0681 45.5584 12.0331 46.5034 13.3981 50.0584C13.3981 50.0584 15.1591 55.5483 23.5051 53.6883C23.5201 56.2593 23.5471 58.6824 23.5471 59.4144C23.5471 60.2274 22.9951 61.1789 21.4981 60.8939C9.57612 56.8289 0.981133 45.2969 0.981133 31.7069C0.981133 14.7179 14.4151 0.94809 30.9811 0.94809Z" style="fill:#FF4A57;fill-opacity:1;"/>
</svg>
