<svg width="60" height="60" viewBox="0 0 60 60" fill="none" xmlns="http://www.w3.org/2000/svg">
<g clip-path="url(#clip0_9_40)">
<path d="M2.5 20H57.5M2.5 20V2.5H57.5V20M2.5 20V37.5M57.5 20V37.5M2.5 37.5H57.5M2.5 37.5V55H57.5V37.5M52.5 57.5H7.5M27.5 12.5H30V10H27.5V12.5ZM47.5 12.5H50V10H47.5V12.5ZM37.5 12.5H40V10H37.5V12.5ZM27.5 30H30V27.5H27.5V30ZM47.5 30H50V27.5H47.5V30ZM37.5 30H40V27.5H37.5V30ZM27.5 47.5H30V45H27.5V47.5ZM47.5 47.5H50V45H47.5V47.5ZM37.5 47.5H40V45H37.5V47.5Z" stroke="black" style="stroke:#FF4A57;;stroke-opacity:1;" stroke-width="5"/>
</g>
<defs>
<clipPath id="clip0_9_40">
<rect width="60" height="60" fill="white" style="fill:white;fill-opacity:1;"/>
</clipPath>
</defs>
</svg>
